<svg height='100px' width='100px'  fill="#000000" xmlns="http://www.w3.org/2000/svg" viewBox="0 0 64 64" x="0px" y="0px"><title>Creative-idea-design-thinking</title><g><path d="M23.18,20.2l-1.96-.4A11.082,11.082,0,0,0,21,22h2A9.107,9.107,0,0,1,23.18,20.2Z"></path><path d="M32,13V11a11,11,0,0,0-10.084,6.6l1.833.8A9,9,0,0,1,32,13Z"></path><path d="M57.868,34.5l-.008.005a.988.988,0,0,0-.521-.449L45.887,29.937a16,16,0,1,0-27.774,0L6.661,34.06a.988.988,0,0,0-.521.449L6.132,34.5l-4,7a1,1,0,0,0,.529,1.436L6,44.142V52a1,1,0,0,0,.661.94l25,9a.988.988,0,0,0,.678,0l25-9A1,1,0,0,0,58,52V44.142l3.339-1.2a1,1,0,0,0,.529-1.436Zm-3.821.5L41,39.7V35.212a16.089,16.089,0,0,0,3.75-3.559ZM18,22A14,14,0,1,1,39.465,33.828a1,1,0,0,0-.465.845v5.744l-2,.72V28a.978.978,0,0,0-.115-.443l.01,0-4-8a1.042,1.042,0,0,0-1.79,0l-4,8,.01,0A.978.978,0,0,0,27,28V41.137l-2-.72V34.673a1,1,0,0,0-.465-.845A13.938,13.938,0,0,1,18,22Zm1.25,9.653A16.089,16.089,0,0,0,23,35.212V39.7L9.953,35ZM4.459,41.462l2.993-5.237,23.089,8.312-2.993,5.237ZM31,59.577,8,51.3V44.862L27.661,51.94A.978.978,0,0,0,28,52a1,1,0,0,0,.868-.5L31,47.765Zm0-17-2-.72V29h2ZM29.618,27,32,22.236,34.382,27ZM35,29V41.857l-2,.72V29ZM56,51.3l-23,8.28V47.765L35.132,51.5a1,1,0,0,0,1.207.444L56,44.862ZM36.452,49.774l-2.993-5.237,23.089-8.312,2.993,5.237Z"></path><path d="M13.4,14.632a20.085,20.085,0,0,0-.383,13.683l1.9-.63a18.084,18.084,0,0,1,.345-12.317Z"></path><path d="M52,22a20.444,20.444,0,0,0-.109-2.1L49.9,20.1A18.113,18.113,0,0,1,50,22Z"></path><path d="M35.157,2.248l-.314,1.975A18.085,18.085,0,0,1,49.6,18.21l1.956-.42A20.1,20.1,0,0,0,35.157,2.248Z"></path></g></svg>