<svg height='100px' width='100px'  fill="#000000" xmlns="http://www.w3.org/2000/svg" xmlns:xlink="http://www.w3.org/1999/xlink" version="1.1" x="0px" y="0px" viewBox="0 0 64 64" style="enable-background:new 0 0 64 64;" xml:space="preserve"><path d="M60,18c1.654,0,3-1.346,3-3c0-1.365-0.921-2.506-2.171-2.869l0.112-5.297C62.133,6.437,63,5.324,63,4c0-1.654-1.346-3-3-3  c-1.534,0-2.789,1.162-2.965,2.65L44.578,6.49C44.056,5.603,43.102,5,42,5c-0.632,0-1.217,0.199-1.702,0.534  C37.827,3.879,34.979,3,32,3c-1.691,0-3.339,0.296-4.919,0.847C26.541,3.325,25.809,3,25,3c-1.139,0-2.121,0.646-2.628,1.584  l-7.428-1.143C14.681,2.054,13.463,1,12,1c-1.654,0-3,1.346-3,3c0,0.63,0.197,1.214,0.53,1.697l-4.683,6.44  C4.576,12.056,4.296,12,4,12c-1.654,0-3,1.346-3,3c0,1.568,1.213,2.844,2.748,2.975l3.565,13.547C6.522,32.062,6,32.971,6,34  c0,0.266,0.046,0.519,0.111,0.765C2.865,37.62,1,41.663,1,46c0,8.271,6.729,15,15,15c5.163,0,9.956-2.678,12.693-7.031  c0.084,0.009,0.165,0.024,0.251,0.025l1.218,3.653C29.46,58.197,29,59.042,29,60c0,1.654,1.346,3,3,3c1.302,0,2.402-0.839,2.816-2  h10.369c0.414,1.161,1.514,2,2.816,2c1.418,0,2.603-0.992,2.914-2.316C57.855,59.309,63,53.141,63,46  c0-3.474-1.218-6.806-3.423-9.49C59.839,36.065,60,35.553,60,35c0-1.654-1.346-3-3-3c-0.093,0-0.18,0.019-0.271,0.027l-3.638-7.883  C53.65,23.599,54,22.841,54,22c0-0.33-0.066-0.642-0.165-0.939l4.552-3.54C58.854,17.821,59.405,18,60,18z M58.941,6.797  l-0.115,5.443c-0.424,0.181-0.789,0.465-1.086,0.809L45.569,8.315l11.903-2.714C57.818,6.145,58.331,6.565,58.941,6.797z M60,16  c-0.551,0-1-0.448-1-1s0.449-1,1-1s1,0.448,1,1S60.551,16,60,16z M60,3c0.551,0,1,0.448,1,1s-0.449,1-1,1s-1-0.448-1-1  S59.449,3,60,3z M42,7c0.551,0,1,0.448,1,1s-0.449,1-1,1s-1-0.448-1-1S41.449,7,42,7z M39.135,7.159C39.056,7.427,39,7.706,39,8  c0,1.654,1.346,3,3,3c0.294,0,0.573-0.056,0.841-0.135C44.252,12.995,45,15.443,45,18c0,3.151-1.128,6.042-3,8.295v-2.032  c0-1.776-1.193-3.358-2.901-3.847L35,19.246v-1.272c1.207-0.914,2-2.348,2-3.974v-2c0-2.757-2.243-5-5-5s-5,2.243-5,5v2  c0,1.627,0.793,3.061,2,3.974v1.272l-4.099,1.17C23.193,20.904,22,22.486,22,24.263v2.002c-1.125-1.354-1.984-2.94-2.486-4.69  C20.399,21.053,21,20.1,21,19c0-1.246-0.764-2.316-1.848-2.768c0.412-2.99,1.864-5.757,4.096-7.807C23.743,8.783,24.345,9,25,9  c1.654,0,3-1.346,3-3c0-0.119-0.022-0.232-0.035-0.347C29.264,5.227,30.615,5,32,5C34.558,5,37.006,5.748,39.135,7.159z M32,17  c-1.654,0-3-1.346-3-3v-2c0-1.654,1.346-3,3-3s3,1.346,3,3v2C35,15.654,33.654,17,32,17z M32,19c0.342,0,0.677-0.035,1-0.101v0.687  l-1,1l-1-1v-0.687C31.323,18.965,31.658,19,32,19z M29.709,21.123L32,23.414l2.291-2.291l4.258,1.217  C39.403,22.584,40,23.374,40,24.263v3.963C37.791,29.957,35.018,31,32,31c-2.974,0-5.768-1.037-8-2.786v-3.951  c0-0.889,0.597-1.679,1.45-1.923L29.709,21.123z M9,33c0.551,0,1,0.448,1,1s-0.449,1-1,1s-1-0.448-1-1S8.449,33,9,33z M9.252,31.025  L5.687,17.478c0.293-0.2,0.544-0.454,0.75-0.742l8.582,2.452c0.041,0.648,0.287,1.236,0.676,1.708L9.597,31.06  C9.486,31.038,9.367,31.035,9.252,31.025z M12,7c0.041,0,0.078-0.01,0.118-0.012l3.909,9.77c-0.172,0.152-0.33,0.318-0.464,0.505  l-8.582-2.452c-0.035-0.556-0.212-1.074-0.511-1.508l4.684-6.44C11.424,6.944,11.704,7,12,7z M14.628,5.416l7.428,1.143  c0.013,0.071,0.036,0.137,0.055,0.206c-2.391,2.112-4.041,4.925-4.725,8.009l-3.413-8.532C14.239,6.008,14.459,5.73,14.628,5.416z   M18,18c0.551,0,1,0.448,1,1s-0.449,1-1,1s-1-0.448-1-1S17.449,18,18,18z M25,5c0.551,0,1,0.448,1,1s-0.449,1-1,1s-1-0.448-1-1  S24.449,5,25,5z M12,3c0.551,0,1,0.448,1,1s-0.449,1-1,1s-1-0.448-1-1S11.449,3,12,3z M3,15c0-0.552,0.449-1,1-1s1,0.448,1,1  s-0.449,1-1,1S3,15.552,3,15z M8,56.226v-3.963c0-0.889,0.597-1.679,1.45-1.923l4.259-1.217L16,51.414l2.291-2.291l4.258,1.217  C23.403,50.584,24,51.374,24,52.263v3.973C21.749,57.996,18.943,59,16,59C12.982,59,10.209,57.957,8,56.226z M16,45  c-1.654,0-3-1.346-3-3v-2c0-1.654,1.346-3,3-3s3,1.346,3,3v2C19,43.654,17.654,45,16,45z M16,47c0.342,0,0.677-0.035,1-0.101v0.687  l-1,1l-1-1v-0.687C15.323,46.965,15.658,47,16,47z M26,54.286v-2.024c0-1.776-1.193-3.358-2.901-3.847L19,47.246v-1.272  c1.207-0.914,2-2.348,2-3.974v-2c0-2.757-2.243-5-5-5s-5,2.243-5,5v2c0,1.627,0.793,3.061,2,3.974v1.272l-4.099,1.17  C7.193,48.904,6,50.486,6,52.263v2.032C4.128,52.042,3,49.151,3,46c0-3.677,1.548-7.11,4.249-9.574C7.743,36.783,8.345,37,9,37  c1.654,0,3-1.346,3-3c0-0.117-0.021-0.228-0.034-0.341C13.272,33.229,14.624,33,16,33c7.168,0,13,5.832,13,13  c0,0.661-0.075,1.338-0.185,2.019C27.248,48.116,26,49.409,26,51c0,0.824,0.334,1.57,0.874,2.113  C26.604,53.524,26.31,53.913,26,54.286z M29,50c0.551,0,1,0.448,1,1s-0.449,1-1,1s-1-0.448-1-1S28.449,50,29,50z M32,61  c-0.551,0-1-0.448-1-1s0.449-1,1-1s1,0.448,1,1S32.551,61,32,61z M48,45c-1.654,0-3-1.346-3-3v-2c0-1.654,1.346-3,3-3s3,1.346,3,3v2  C51,43.654,49.654,45,48,45z M48,47c0.342,0,0.677-0.035,1-0.101v0.687l-1,1l-1-1v-0.687C47.323,46.965,47.658,47,48,47z   M45.709,49.123L48,51.414l2.291-2.291l4.258,1.217C55.403,50.584,56,51.374,56,52.263v3.944c-1.528,1.202-3.333,2.068-5.312,2.486  C50.2,57.695,49.184,57,48,57c-1.184,0-2.2,0.695-2.688,1.693c-1.979-0.418-3.784-1.284-5.312-2.486v-3.944  c0-0.889,0.597-1.679,1.45-1.923L45.709,49.123z M48,61c-0.551,0-1-0.448-1-1s0.449-1,1-1s1,0.448,1,1S48.551,61,48,61z M58,54.252  v-1.99c0-1.776-1.193-3.358-2.901-3.847L51,47.246v-1.272c1.207-0.914,2-2.348,2-3.974v-2c0-2.757-2.243-5-5-5s-5,2.243-5,5v2  c0,1.627,0.793,3.061,2,3.974v1.272l-4.099,1.17C39.193,48.904,38,50.486,38,52.263v1.99c-1.874-2.264-3-5.151-3-8.252  c0-7.168,5.832-13,13-13c2.105,0,4.179,0.523,6.049,1.512C54.023,34.672,54,34.833,54,35c0,1.654,1.346,3,3,3  c0.371,0,0.723-0.076,1.051-0.2C59.951,40.123,61,43.001,61,46C61,49.102,59.874,51.988,58,54.252z M58,35c0,0.552-0.449,1-1,1  s-1-0.448-1-1s0.449-1,1-1S58,34.448,58,35z M54.816,32.655C52.702,31.571,50.368,31,48,31c-8.271,0-15,6.729-15,15  c0,5.48,3.031,10.388,7.575,13h-5.759c-0.408-1.144-1.483-1.97-2.76-1.994l-1.218-3.653C31.54,52.803,32,51.958,32,51  c0-1.001-0.498-1.884-1.253-2.429C30.899,47.706,31,46.844,31,46c0-8.271-6.729-15-15-15c-1.515,0-3.004,0.236-4.445,0.686  l5.848-9.746c0.047,0.01,0.098,0.007,0.145,0.015C19.312,28.398,25.257,33,32,33c8.271,0,15-6.729,15-15  c0-2.801-0.775-5.489-2.242-7.855l12.251,4.765C57.008,14.94,57,14.969,57,15c0,0.33,0.066,0.642,0.165,0.939l-4.552,3.54  C52.146,19.179,51.595,19,51,19c-1.654,0-3,1.346-3,3s1.346,3,3,3c0.093,0,0.18-0.019,0.27-0.027L54.816,32.655z M51,23  c-0.551,0-1-0.448-1-1s0.449-1,1-1s1,0.448,1,1S51.551,23,51,23z"></path></svg>