<svg height='100px' width='100px'  fill="#000000" xmlns="http://www.w3.org/2000/svg" viewBox="0 0 100 100" x="0px" y="0px"><title>3Dprinter</title><g><path d="M54.46,46.23a1,1,0,1,0-1-1A1,1,0,0,0,54.46,46.23ZM79.3,30.8H54.46V26.62H50.54A14.36,14.36,0,0,0,22.6,29.56a10.3,10.3,0,0,0-.47,1.24H20.7a2.09,2.09,0,0,0-2.09,2.09v41.6a2.09,2.09,0,0,0,2.09,2.09h4.08l.65,3.28h3.25l.65-3.28H70l.65,3.28h3.25l.65-3.28H79.3a2.09,2.09,0,0,0,2.09-2.09V32.9A2.09,2.09,0,0,0,79.3,30.8Zm-11,6.05a.47.47,0,0,0,0,.07v5.71H59.72a2.07,2.07,0,0,0-1.48-1.41V39.86a.5.5,0,0,0-.5-.5H54.93a2.17,2.17,0,0,0-.86-1.67c-1.19-.8-3.15,0-4.88.69a7.56,7.56,0,0,1-2.29.72c0-.07-.11-.49.77-2.24ZM58.55,66.68l-1-.62,1-.62a.5.5,0,0,0,.24-.43v-.71a.5.5,0,0,0-.24-.43l-1-.62,1-.62a.5.5,0,0,0,.24-.43v-.71a.5.5,0,0,0-.24-.43l-.2-.12h10v6.34H58.79v-.16A.5.5,0,0,0,58.55,66.68ZM28.67,59.93l8.62-4.08H43.1a9.07,9.07,0,0,0,13.1,0H62l8.62,4.08ZM46.13,39.74c.61.71,1.85.2,3.43-.43s3.2-1.29,3.95-.79a1.16,1.16,0,0,1,.42.84H51.18a.5.5,0,0,0-.5.5V41.2A2.08,2.08,0,0,0,49,42.78H31V36.93a.47.47,0,0,0,0-.07H46.55C45.72,38.61,45.76,39.31,46.13,39.74Zm5,7.17h.72l.58.84c-1,0-2-.06-2.83-.06-3.41,0-9.12.24-9.12,1.83A9.07,9.07,0,0,0,41,52.38a.73.73,0,0,0,.12.32,9.14,9.14,0,0,0,1.15,2.14H37.18a.5.5,0,0,0-.21,0l-6,2.83V43.49H49a2.07,2.07,0,0,0,1.69,1.8v1.13A.5.5,0,0,0,51.18,46.92ZM42,52.25a8.06,8.06,0,0,1-.48-2.63c.5-.4,3.5-.93,8.12-.93,1.33,0,2.53,0,3.57.12L54,50a.5.5,0,0,0,.18.16l-1.27.1c-.71,0-1.29.78-1.89,1.56-.44.56-1,1.33-1.41,1.33C44.68,53.14,42.44,52.57,42,52.25Zm7.64,1.89c.86,0,1.54-.87,2.2-1.72.36-.46.9-1.16,1.17-1.17a18.53,18.53,0,0,0,4.68-.7,8.11,8.11,0,0,1-15.11,3A30.32,30.32,0,0,0,49.65,54.14Zm5.12-4a.49.49,0,0,0,.1-.1l.66-1a8.69,8.69,0,0,1,2.06.47A10.62,10.62,0,0,1,54.77,50.1Zm4-.43a1.17,1.17,0,0,0,0-.15c0-.69-1.09-1.13-2.6-1.4l.84-1.2h.72a.5.5,0,0,0,.5-.5V45.26a2.08,2.08,0,0,0,1.54-1.62h8.53V57.72l-6-2.83a.5.5,0,0,0-.21,0H57A9.07,9.07,0,0,0,58.77,49.67Zm-1.53-3.76h-.49a.5.5,0,0,0-.41.21l-1.88,2.71-1.89-2.71a.5.5,0,0,0-.41-.21h-.48V40.36h5.56ZM36.89,19.22a11.88,11.88,0,0,1,11,7.4H45.54V30.8h-4A10.12,10.12,0,0,0,26.69,25,11.87,11.87,0,0,1,36.89,19.22Zm-5.06,8.59a6,6,0,0,1,5.16,3H26.66A6,6,0,0,1,31.83,27.81Zm-7.31,9.05H30a.47.47,0,0,0,0,.07v5.85H24.52Zm0,33.7V43.49H30V58.2L26.23,60a.5.5,0,0,0,.21,1H30v6.3a.49.49,0,0,0,.05.22ZM41.45,69.5a.5.5,0,0,0-.24.43V71.1H25.58l5-2.84H41.46l1,.62Zm0-4.06,1,.62-1,.62a.5.5,0,0,0-.24.43v.16H31s0,0,0,0v-6.3H41.66l-.21.12a.5.5,0,0,0-.24.43v.71a.5.5,0,0,0,.24.43l1,.62-1,.62a.5.5,0,0,0-.24.43V65A.5.5,0,0,0,41.45,65.43Zm1.75-2.19a.25.25,0,0,1,.25-.25h4.8a.25.25,0,0,1,0,.5h-4.8A.25.25,0,0,1,43.2,63.24Zm5.92,5.88H46.24a.25.25,0,1,1,0-.5h2.88a.25.25,0,1,1,0,.5Zm4.63-2.82h-.34a.25.25,0,0,1,0-.5h.34a.25.25,0,0,1,0,.5Zm5,4.79V69.92a.5.5,0,0,0-.24-.43l-1-.62,1-.62H68.68l5,2.84Zm16-.54-5.47-3.08V60.93h3.54a.5.5,0,0,0,.21-1L69.31,58.2V43.64h5.47Zm0-27.92H69.31V36.93a.47.47,0,0,0,0-.07h5.49Z"></path></g></svg>