<svg height='100px' width='100px'  fill="#000000" xmlns="http://www.w3.org/2000/svg" xmlns:xlink="http://www.w3.org/1999/xlink" version="1.1" x="0px" y="0px" viewBox="0 0 64 64" style="enable-background:new 0 0 64 64;" xml:space="preserve"><g><path d="M49,39V23h-9.641c-2.149,2.234-5.085,3.698-8.359,3.949V39h2v-1c0-2.801,1.658-5.216,4.04-6.334   C36.4,30.957,36,30.028,36,29c0-2.206,1.794-4,4-4s4,1.794,4,4c0,1.028-0.4,1.957-1.04,2.666C45.342,32.784,47,35.199,47,38v1H49z"></path><circle cx="40" cy="29" r="2"></circle><path d="M9,43H4c-0.552,0-1,0.449-1,1v4c0,0.551,0.448,1,1,1h5V43z"></path><path d="M35,38v1h10v-1c0-2.757-2.243-5-5-5S35,35.243,35,38z"></path><rect x="25" y="13" width="2" height="2"></rect><rect x="33" y="13" width="2" height="2"></rect><rect x="29" y="13" width="2" height="2"></rect><path d="M30,25c6.065,0,11-4.935,11-11S36.065,3,30,3S19,7.935,19,14S23.935,25,30,25z M30,6c4.418,0,8,3.582,8,8s-3.582,8-8,8   s-8-3.582-8-8S25.582,6,30,6z"></path><path d="M47,15v-2h-4.051C42.975,13.331,43,13.662,43,14s-0.025,0.669-0.051,1H47z"></path><rect x="11" y="43" width="16" height="2"></rect><path d="M47.179,16.982C47.119,16.987,47.061,17,47,17h-4.363c-0.342,1.441-0.921,2.788-1.7,4H51v20H29V26.949   C22.299,26.435,17,20.831,17,14c0-1.034,0.134-2.035,0.363-3H7v30h21.236l5.316,2.658C34.445,44.104,35,45.002,35,46   s-0.555,1.896-1.447,2.342L28.236,51H7v10h46V19h-3C48.691,19,47.588,18.153,47.179,16.982z M9,13h6v2H9V13z M9,17h6v2H9V17z M9,21   h6v2H9V21z M9,25h6v2H9V25z M26,38H10v-4h16V38z M27,31H9v-2h18V31z M18,58h-6v-4h6V58z M28,58h-6v-4h6V58z M38,58h-6v-4h6V58z    M48,58h-6v-4h6V58z M51,49H36v-2h15V49z M51,45H36v-2h15V45z"></path><path d="M33,46c0-0.236-0.131-0.447-0.342-0.553L29,43.618v4.764l3.658-1.829C32.869,46.447,33,46.236,33,46z"></path><rect x="11" y="47" width="16" height="2"></rect><path d="M58,11h-8c-0.552,0-1,0.449-1,1v1v2v1c0,0.551,0.448,1,1,1h8c1.654,0,3-1.346,3-3S59.654,11,58,11z"></path></g></svg>