<svg height='100px' width='100px'  fill="#000000" xmlns="http://www.w3.org/2000/svg" xmlns:xlink="http://www.w3.org/1999/xlink" version="1.1" x="0px" y="0px" viewBox="0 0 100.123 100" enable-background="new 0 0 100.123 100" xml:space="preserve"><circle fill="#000000" cx="50.858" cy="67.403" r="4.902"></circle><path fill="#000000" d="M58.211,80.881c0-4.061-3.295-7.352-7.353-7.352c-4.061,0-7.353,3.291-7.353,7.352v2.452h14.706V80.881z"></path><circle fill="#000000" cx="84.315" cy="67.403" r="4.902"></circle><path fill="#000000" d="M91.667,80.881c0-4.061-3.292-7.352-7.353-7.352s-7.353,3.291-7.353,7.352v2.452h14.705V80.881z"></path><circle fill="#000000" cx="67.648" cy="84.07" r="4.902"></circle><path fill="#000000" d="M75,97.548c0-4.061-3.291-7.352-7.353-7.352c-4.061,0-7.353,3.291-7.353,7.352V100H75V97.548z"></path><circle fill="#000000" cx="67.526" cy="50.736" r="4.902"></circle><path fill="#000000" d="M74.878,64.215c0-4.062-3.292-7.352-7.354-7.352c-4.061,0-7.353,3.29-7.353,7.352v2.452h14.706V64.215z"></path><circle fill="#000000" cx="92.77" cy="23.653" r="4.902"></circle><path fill="#000000" d="M100,37.5c0-4.061-3.169-7.721-7.23-7.721c-4.061,0-7.353,3.66-7.353,7.721l0.122,20.833h14.584L100,37.5z"></path><path fill="#000000" d="M27.082,81.25c-0.418,0-0.838-0.125-1.205-0.385c-0.938-0.665-1.158-1.966-0.494-2.904l45.833-64.583  c0.666-0.938,1.968-1.158,2.905-0.493c0.938,0.665,1.158,1.966,0.493,2.904L28.783,80.372C28.376,80.945,27.734,81.25,27.082,81.25z  "></path><path fill="#000000" d="M43.75,0H2.083C0.932,0,0,0.932,0,2.083V31.25v4.167C0,36.568,0.932,37.5,2.083,37.5H18.75  c0,1.878,0,6.25-6.25,6.25c-1.151,0-2.083,0.932-2.083,2.083c0,1.151,0.932,2.083,2.083,2.083h10.417h10.417  c1.151,0,2.083-0.932,2.083-2.083c0-1.152-0.932-2.083-2.083-2.083c-6.25,0-6.25-4.372-6.25-6.25H43.75  c1.151,0,2.083-0.932,2.083-2.083V31.25V2.083C45.833,0.932,44.901,0,43.75,0z M4.167,4.167h37.5v25h-37.5V4.167z"></path></svg>